solid WandhalterNagelBilderrahmen_klein
facet normal 0.0 -1.0 0.0
  outer loop
    vertex 32.712812921102035 8.500000000000027 1.0000000000000044
    vertex 4.999999999999998 8.500000000000027 2.999999999999998
    vertex 4.999999999999999 8.500000000000027 0.9999999999999994
  endloop
endfacet
facet normal 0.0 -1.0 0.0
  outer loop
    vertex 4.999999999999998 8.500000000000027 2.999999999999998
    vertex 32.712812921102035 8.500000000000027 1.0000000000000044
    vertex 32.712812921102035 8.500000000000027 3.000000000000004
  endloop
endfacet
facet normal 1.0 6.745698433862231e-17 1.5541560117232128e-17
  outer loop
    vertex 4.999999999999999 6.000000000000028 8.636147352802944e-15
    vertex 5.0 6.000000000000027 0.9999999999999981
    vertex 4.999999999999999 2.9609648066752924e-14 7.049916206369963e-16
  endloop
endfacet
facet normal 1.0 6.745698433862231e-17 1.5541560117232128e-17
  outer loop
    vertex 4.999999999999999 2.9609648066752924e-14 7.049916206369963e-16
    vertex 4.999999999999998 8.500000000000027 2.999999999999998
    vertex 5.0 2.5957500753659315e-14 2.99999999999999
  endloop
endfacet
facet normal 1.0 6.745698433862231e-17 1.5541560117232128e-17
  outer loop
    vertex 4.999999999999998 8.500000000000027 2.999999999999998
    vertex 4.999999999999999 2.9609648066752924e-14 7.049916206369963e-16
    vertex 5.0 6.000000000000027 0.9999999999999981
  endloop
endfacet
facet normal 1.0 6.745698433862231e-17 1.5541560117232128e-17
  outer loop
    vertex 4.999999999999998 8.500000000000027 2.999999999999998
    vertex 5.0 6.000000000000027 0.9999999999999981
    vertex 4.999999999999999 8.500000000000027 0.9999999999999994
  endloop
endfacet
facet normal -0.8660254037844387 -0.5000000000000003 -2.3409160730770298e-15
  outer loop
    vertex 15.39230484541326 6.000000000000026 1.0000000000000078
    vertex 17.124355652982143 3.0000000000000293 1.286609707662479e-14
    vertex 17.12435565298214 3.000000000000026 1.0000000000000024
  endloop
endfacet
facet normal -0.8660254037844387 -0.5000000000000003 -2.3409160730770298e-15
  outer loop
    vertex 17.124355652982143 3.0000000000000293 1.286609707662479e-14
    vertex 15.39230484541326 6.000000000000026 1.0000000000000078
    vertex 15.392304845413264 6.000000000000028 1.8153534231402096e-14
  endloop
endfacet
facet normal 4.127360896680358e-16 -1.4847941147437862e-16 -1.0
  outer loop
    vertex 0.0 11.000000000000025 3.3487101980256357e-15
    vertex 4.999999999999999 6.000000000000028 8.636147352802944e-15
    vertex 1.0574874309554528e-15 2.6084689963568052e-14 7.049916206369963e-16
  endloop
endfacet
facet normal 4.127360896680358e-16 -1.4847941147437862e-16 -1.0
  outer loop
    vertex 4.999999999999999 6.000000000000028 8.636147352802944e-15
    vertex 0.0 11.000000000000025 3.3487101980256357e-15
    vertex 37.99999999999999 11.000000000000025 3.3487101980256357e-15
  endloop
endfacet
facet normal 4.127360896680358e-16 -1.4847941147437862e-16 -1.0
  outer loop
    vertex 4.999999999999999 6.000000000000028 8.636147352802944e-15
    vertex 37.99999999999999 11.000000000000025 3.3487101980256357e-15
    vertex 8.464101615137755 6.00000000000003 1.1808609645669329e-14
  endloop
endfacet
facet normal 4.127360896680358e-16 -1.4847941147437862e-16 -1.0
  outer loop
    vertex 4.999999999999999 6.000000000000028 8.636147352802944e-15
    vertex 8.464101615137755 6.00000000000003 1.1808609645669329e-14
    vertex 6.732050807568876 3.0000000000000293 3.3487101980256357e-15
  endloop
endfacet
facet normal 4.127360896680358e-16 -1.4847941147437862e-16 -1.0
  outer loop
    vertex 8.464101615137755 6.00000000000003 1.1808609645669329e-14
    vertex 37.99999999999999 11.000000000000025 3.3487101980256357e-15
    vertex 11.928203230275507 6.00000000000003 1.4981071938535712e-14
  endloop
endfacet
facet normal 4.127360896680358e-16 -1.4847941147437862e-16 -1.0
  outer loop
    vertex 8.464101615137755 6.00000000000003 1.1808609645669329e-14
    vertex 11.928203230275507 6.00000000000003 1.4981071938535712e-14
    vertex 10.196152422706632 3.00000000000003 6.52117249089202e-15
  endloop
endfacet
facet normal 4.127360896680358e-16 -1.4847941147437862e-16 -1.0
  outer loop
    vertex 11.928203230275507 6.00000000000003 1.4981071938535712e-14
    vertex 37.99999999999999 11.000000000000025 3.3487101980256357e-15
    vertex 15.392304845413264 6.000000000000028 1.8153534231402096e-14
  endloop
endfacet
facet normal 4.127360896680358e-16 -1.4847941147437862e-16 -1.0
  outer loop
    vertex 11.928203230275507 6.00000000000003 1.4981071938535712e-14
    vertex 15.392304845413264 6.000000000000028 1.8153534231402096e-14
    vertex 13.660254037844386 3.0000000000000298 9.693634783758404e-15
  endloop
endfacet
facet normal 4.127360896680358e-16 -1.4847941147437862e-16 -1.0
  outer loop
    vertex 15.392304845413264 6.000000000000028 1.8153534231402096e-14
    vertex 37.99999999999999 11.000000000000025 3.3487101980256357e-15
    vertex 18.856406460551018 6.000000000000028 2.1325996524268483e-14
  endloop
endfacet
facet normal 4.127360896680358e-16 -1.4847941147437862e-16 -1.0
  outer loop
    vertex 15.392304845413264 6.000000000000028 1.8153534231402096e-14
    vertex 18.856406460551018 6.000000000000028 2.1325996524268483e-14
    vertex 17.124355652982143 3.0000000000000293 1.286609707662479e-14
  endloop
endfacet
facet normal 4.127360896680358e-16 -1.4847941147437862e-16 -1.0
  outer loop
    vertex 18.856406460551018 6.000000000000028 2.1325996524268483e-14
    vertex 37.99999999999999 11.000000000000025 3.3487101980256357e-15
    vertex 22.32050807568877 6.000000000000028 2.449845881713487e-14
  endloop
endfacet
facet normal 4.127360896680358e-16 -1.4847941147437862e-16 -1.0
  outer loop
    vertex 18.856406460551018 6.000000000000028 2.1325996524268483e-14
    vertex 22.32050807568877 6.000000000000028 2.449845881713487e-14
    vertex 20.588457268119893 3.000000000000029 1.6038559369491175e-14
  endloop
endfacet
facet normal 4.127360896680358e-16 -1.4847941147437862e-16 -1.0
  outer loop
    vertex 22.32050807568877 6.000000000000028 2.449845881713487e-14
    vertex 37.99999999999999 11.000000000000025 3.3487101980256357e-15
    vertex 25.78460969082652 6.000000000000028 2.7670921110001253e-14
  endloop
endfacet
facet normal 4.127360896680358e-16 -1.4847941147437862e-16 -1.0
  outer loop
    vertex 22.32050807568877 6.000000000000028 2.449845881713487e-14
    vertex 25.78460969082652 6.000000000000028 2.7670921110001253e-14
    vertex 24.05255888325765 3.000000000000029 1.9211021662357558e-14
  endloop
endfacet
facet normal 4.127360896680358e-16 -1.4847941147437862e-16 -1.0
  outer loop
    vertex 25.78460969082652 6.000000000000028 2.7670921110001253e-14
    vertex 37.99999999999999 11.000000000000025 3.3487101980256357e-15
    vertex 29.248711305964278 6.000000000000027 3.0843383402867636e-14
  endloop
endfacet
facet normal 4.127360896680358e-16 -1.4847941147437862e-16 -1.0
  outer loop
    vertex 25.78460969082652 6.000000000000028 2.7670921110001253e-14
    vertex 29.248711305964278 6.000000000000027 3.0843383402867636e-14
    vertex 27.5166604983954 3.0000000000000284 2.2383483955223945e-14
  endloop
endfacet
facet normal 4.127360896680358e-16 -1.4847941147437862e-16 -1.0
  outer loop
    vertex 29.248711305964278 6.000000000000027 3.0843383402867636e-14
    vertex 37.99999999999999 11.000000000000025 3.3487101980256357e-15
    vertex 32.712812921102035 6.000000000000027 3.401584569573402e-14
  endloop
endfacet
facet normal 4.127360896680358e-16 -1.4847941147437862e-16 -1.0
  outer loop
    vertex 29.248711305964278 6.000000000000027 3.0843383402867636e-14
    vertex 32.712812921102035 6.000000000000027 3.401584569573402e-14
    vertex 30.980762113533153 3.000000000000028 2.5555946248090332e-14
  endloop
endfacet
facet normal 4.127360896680358e-16 -1.4847941147437862e-16 -1.0
  outer loop
    vertex 32.712812921102035 6.000000000000027 3.401584569573402e-14
    vertex 37.99999999999999 11.000000000000025 3.3487101980256357e-15
    vertex 32.712812921102035 3.1724622928663847e-15 2.3969715101657118e-14
  endloop
endfacet
facet normal 4.127360896680358e-16 -1.4847941147437862e-16 -1.0
  outer loop
    vertex 32.712812921102035 3.1724622928663847e-15 2.3969715101657118e-14
    vertex 37.99999999999999 11.000000000000025 3.3487101980256357e-15
    vertex 37.99999999999999 3.524958103184872e-16 0.0
  endloop
endfacet
facet normal 4.127360896680358e-16 -1.4847941147437862e-16 -1.0
  outer loop
    vertex 4.999999999999999 2.9609648066752924e-14 7.049916206369963e-16
    vertex 1.0574874309554528e-15 2.6084689963568052e-14 7.049916206369963e-16
    vertex 4.999999999999999 6.000000000000028 8.636147352802944e-15
  endloop
endfacet
facet normal 1.0 0.0 0.0
  outer loop
    vertex 37.99999999999999 11.000000000000025 3.3487101980256357e-15
    vertex 38.0 7.59501282026429e-16 2.9999999999998903
    vertex 37.99999999999999 3.524958103184872e-16 0.0
  endloop
endfacet
facet normal 1.0 0.0 0.0
  outer loop
    vertex 38.0 7.59501282026429e-16 2.9999999999998903
    vertex 37.99999999999999 11.000000000000025 3.3487101980256357e-15
    vertex 38.0 11.000000000000025 2.9999999999998956
  endloop
endfacet
facet normal -0.8660254037844387 -0.4999999999999999 -1.7048567287974437e-15
  outer loop
    vertex 8.464101615137755 6.000000000000027 1.0000000000000013
    vertex 10.196152422706632 3.00000000000003 6.52117249089202e-15
    vertex 10.196152422706632 3.000000000000027 0.999999999999996
  endloop
endfacet
facet normal -0.8660254037844387 -0.4999999999999999 -1.7048567287974437e-15
  outer loop
    vertex 10.196152422706632 3.00000000000003 6.52117249089202e-15
    vertex 8.464101615137755 6.000000000000027 1.0000000000000013
    vertex 8.464101615137755 6.00000000000003 1.1808609645669329e-14
  endloop
endfacet
facet normal 0.8660254037844385 -0.5000000000000003 9.003666039964049e-17
  outer loop
    vertex 13.660254037844386 3.0000000000000298 9.693634783758404e-15
    vertex 15.39230484541326 6.000000000000026 1.0000000000000078
    vertex 13.660254037844382 3.0000000000000266 0.9999999999999992
  endloop
endfacet
facet normal 0.8660254037844385 -0.5000000000000003 9.003666039964049e-17
  outer loop
    vertex 15.39230484541326 6.000000000000026 1.0000000000000078
    vertex 13.660254037844386 3.0000000000000298 9.693634783758404e-15
    vertex 15.392304845413264 6.000000000000028 1.8153534231402096e-14
  endloop
endfacet
facet normal -1.0 0.0 0.0
  outer loop
    vertex 1.214475255757097e-15 11.000000000000023 3.0000000000000027
    vertex 1.0574874309554528e-15 2.6084689963568052e-14 7.049916206369963e-16
    vertex 2.27196268671255e-15 2.5957500753659315e-14 3.0000000000000013
  endloop
endfacet
facet normal -1.0 0.0 0.0
  outer loop
    vertex 1.0574874309554528e-15 2.6084689963568052e-14 7.049916206369963e-16
    vertex 1.214475255757097e-15 11.000000000000023 3.0000000000000027
    vertex 0.0 11.000000000000025 3.3487101980256357e-15
  endloop
endfacet
facet normal -1.56115631028431e-16 -1.0 -1.1162367326752036e-15
  outer loop
    vertex 38.0 7.59501282026429e-16 2.9999999999998903
    vertex 32.712812921102035 3.1724622928663847e-15 2.3969715101657118e-14
    vertex 37.99999999999999 3.524958103184872e-16 0.0
  endloop
endfacet
facet normal -1.56115631028431e-16 -1.0 -1.1162367326752036e-15
  outer loop
    vertex 32.712812921102035 3.1724622928663847e-15 2.3969715101657118e-14
    vertex 38.0 7.59501282026429e-16 2.9999999999998903
    vertex 32.712812921102035 7.59501282026429e-16 2.9999999999999014
  endloop
endfacet
facet normal 3.524958103184843e-16 -1.0 -8.812395257962132e-16
  outer loop
    vertex 5.0 2.5957500753659315e-14 2.99999999999999
    vertex 1.0574874309554528e-15 2.6084689963568052e-14 7.049916206369963e-16
    vertex 4.999999999999999 2.9609648066752924e-14 7.049916206369963e-16
  endloop
endfacet
facet normal 3.524958103184843e-16 -1.0 -8.812395257962132e-16
  outer loop
    vertex 1.0574874309554528e-15 2.6084689963568052e-14 7.049916206369963e-16
    vertex 5.0 2.5957500753659315e-14 2.99999999999999
    vertex 2.27196268671255e-15 2.5957500753659315e-14 3.0000000000000013
  endloop
endfacet
facet normal -0.8660254037844387 -0.4999999999999999 -8.192923752813438e-16
  outer loop
    vertex 5.0 6.000000000000027 0.9999999999999981
    vertex 6.732050807568876 3.0000000000000293 3.3487101980256357e-15
    vertex 6.732050807568878 3.000000000000027 0.9999999999999929
  endloop
endfacet
facet normal -0.8660254037844387 -0.4999999999999999 -8.192923752813438e-16
  outer loop
    vertex 6.732050807568876 3.0000000000000293 3.3487101980256357e-15
    vertex 5.0 6.000000000000027 0.9999999999999981
    vertex 4.999999999999999 6.000000000000028 8.636147352802944e-15
  endloop
endfacet
facet normal 0.8660254037844387 -0.5000000000000002 -6.787227709939059e-16
  outer loop
    vertex 6.732050807568876 3.0000000000000293 3.3487101980256357e-15
    vertex 8.464101615137755 6.000000000000027 1.0000000000000013
    vertex 6.732050807568878 3.000000000000027 0.9999999999999929
  endloop
endfacet
facet normal 0.8660254037844387 -0.5000000000000002 -6.787227709939059e-16
  outer loop
    vertex 8.464101615137755 6.000000000000027 1.0000000000000013
    vertex 6.732050807568876 3.0000000000000293 3.3487101980256357e-15
    vertex 8.464101615137755 6.00000000000003 1.1808609645669329e-14
  endloop
endfacet
facet normal -7.396350695904047e-16 -7.184456591987476e-16 1.0
  outer loop
    vertex 5.0 6.000000000000027 0.9999999999999981
    vertex 32.712812921102035 8.500000000000027 1.0000000000000044
    vertex 4.999999999999999 8.500000000000027 0.9999999999999994
  endloop
endfacet
facet normal -7.396350695904047e-16 -7.184456591987476e-16 1.0
  outer loop
    vertex 32.712812921102035 8.500000000000027 1.0000000000000044
    vertex 5.0 6.000000000000027 0.9999999999999981
    vertex 8.464101615137755 6.000000000000027 1.0000000000000013
  endloop
endfacet
facet normal -7.396350695904047e-16 -7.184456591987476e-16 1.0
  outer loop
    vertex 8.464101615137755 6.000000000000027 1.0000000000000013
    vertex 5.0 6.000000000000027 0.9999999999999981
    vertex 6.732050807568878 3.000000000000027 0.9999999999999929
  endloop
endfacet
facet normal -7.396350695904047e-16 -7.184456591987476e-16 1.0
  outer loop
    vertex 32.712812921102035 8.500000000000027 1.0000000000000044
    vertex 8.464101615137755 6.000000000000027 1.0000000000000013
    vertex 11.928203230275507 6.000000000000026 1.0000000000000044
  endloop
endfacet
facet normal -7.396350695904047e-16 -7.184456591987476e-16 1.0
  outer loop
    vertex 11.928203230275507 6.000000000000026 1.0000000000000044
    vertex 8.464101615137755 6.000000000000027 1.0000000000000013
    vertex 10.196152422706632 3.000000000000027 0.999999999999996
  endloop
endfacet
facet normal -7.396350695904047e-16 -7.184456591987476e-16 1.0
  outer loop
    vertex 32.712812921102035 8.500000000000027 1.0000000000000044
    vertex 11.928203230275507 6.000000000000026 1.0000000000000044
    vertex 15.39230484541326 6.000000000000026 1.0000000000000078
  endloop
endfacet
facet normal -7.396350695904047e-16 -7.184456591987476e-16 1.0
  outer loop
    vertex 15.39230484541326 6.000000000000026 1.0000000000000078
    vertex 11.928203230275507 6.000000000000026 1.0000000000000044
    vertex 13.660254037844382 3.0000000000000266 0.9999999999999992
  endloop
endfacet
facet normal -7.396350695904047e-16 -7.184456591987476e-16 1.0
  outer loop
    vertex 32.712812921102035 8.500000000000027 1.0000000000000044
    vertex 15.39230484541326 6.000000000000026 1.0000000000000078
    vertex 18.856406460551014 6.000000000000026 1.0000000000000109
  endloop
endfacet
facet normal -7.396350695904047e-16 -7.184456591987476e-16 1.0
  outer loop
    vertex 18.856406460551014 6.000000000000026 1.0000000000000109
    vertex 15.39230484541326 6.000000000000026 1.0000000000000078
    vertex 17.12435565298214 3.000000000000026 1.0000000000000024
  endloop
endfacet
facet normal -7.396350695904047e-16 -7.184456591987476e-16 1.0
  outer loop
    vertex 32.712812921102035 8.500000000000027 1.0000000000000044
    vertex 18.856406460551014 6.000000000000026 1.0000000000000109
    vertex 22.320508075688767 6.000000000000026 1.000000000000014
  endloop
endfacet
facet normal -7.396350695904047e-16 -7.184456591987476e-16 1.0
  outer loop
    vertex 22.320508075688767 6.000000000000026 1.000000000000014
    vertex 18.856406460551014 6.000000000000026 1.0000000000000109
    vertex 20.58845726811989 3.0000000000000258 1.0000000000000056
  endloop
endfacet
facet normal -7.396350695904047e-16 -7.184456591987476e-16 1.0
  outer loop
    vertex 32.712812921102035 8.500000000000027 1.0000000000000044
    vertex 22.320508075688767 6.000000000000026 1.000000000000014
    vertex 25.78460969082652 6.000000000000024 1.000000000000017
  endloop
endfacet
facet normal -7.396350695904047e-16 -7.184456591987476e-16 1.0
  outer loop
    vertex 25.78460969082652 6.000000000000024 1.000000000000017
    vertex 22.320508075688767 6.000000000000026 1.000000000000014
    vertex 24.052558883257646 3.0000000000000253 1.0000000000000087
  endloop
endfacet
facet normal -7.396350695904047e-16 -7.184456591987476e-16 1.0
  outer loop
    vertex 32.712812921102035 8.500000000000027 1.0000000000000044
    vertex 25.78460969082652 6.000000000000024 1.000000000000017
    vertex 29.248711305964278 6.000000000000024 1.0000000000000204
  endloop
endfacet
facet normal -7.396350695904047e-16 -7.184456591987476e-16 1.0
  outer loop
    vertex 29.248711305964278 6.000000000000024 1.0000000000000204
    vertex 25.78460969082652 6.000000000000024 1.000000000000017
    vertex 27.5166604983954 3.0000000000000253 1.000000000000012
  endloop
endfacet
facet normal -7.396350695904047e-16 -7.184456591987476e-16 1.0
  outer loop
    vertex 32.712812921102035 8.500000000000027 1.0000000000000044
    vertex 29.248711305964278 6.000000000000024 1.0000000000000204
    vertex 30.980762113533153 3.000000000000025 1.000000000000015
  endloop
endfacet
facet normal -7.396350695904047e-16 -7.184456591987476e-16 1.0
  outer loop
    vertex 32.712812921102035 8.500000000000027 1.0000000000000044
    vertex 30.980762113533153 3.000000000000025 1.000000000000015
    vertex 32.712812921102035 6.000000000000024 1.0000000000000235
  endloop
endfacet
facet normal 0.8660254037844388 -0.4999999999999996 9.00366603996369e-17
  outer loop
    vertex 17.124355652982143 3.0000000000000293 1.286609707662479e-14
    vertex 18.856406460551014 6.000000000000026 1.0000000000000109
    vertex 17.12435565298214 3.000000000000026 1.0000000000000024
  endloop
endfacet
facet normal 0.8660254037844388 -0.4999999999999996 9.00366603996369e-17
  outer loop
    vertex 18.856406460551014 6.000000000000026 1.0000000000000109
    vertex 17.124355652982143 3.0000000000000293 1.286609707662479e-14
    vertex 18.856406460551018 6.000000000000028 2.1325996524268483e-14
  endloop
endfacet
facet normal 0.8660254037844385 -0.5000000000000003 -1.121504947751954e-15
  outer loop
    vertex 30.980762113533153 3.000000000000028 2.5555946248090332e-14
    vertex 32.712812921102035 6.000000000000024 1.0000000000000235
    vertex 30.980762113533153 3.000000000000025 1.000000000000015
  endloop
endfacet
facet normal 0.8660254037844385 -0.5000000000000003 -1.121504947751954e-15
  outer loop
    vertex 32.712812921102035 6.000000000000024 1.0000000000000235
    vertex 30.980762113533153 3.000000000000028 2.5555946248090332e-14
    vertex 32.712812921102035 6.000000000000027 3.401584569573402e-14
  endloop
endfacet
facet normal 0.8660254037844388 -0.4999999999999996 -5.157341436761606e-16
  outer loop
    vertex 10.196152422706632 3.00000000000003 6.52117249089202e-15
    vertex 11.928203230275507 6.000000000000026 1.0000000000000044
    vertex 10.196152422706632 3.000000000000027 0.999999999999996
  endloop
endfacet
facet normal 0.8660254037844388 -0.4999999999999996 -5.157341436761606e-16
  outer loop
    vertex 11.928203230275507 6.000000000000026 1.0000000000000044
    vertex 10.196152422706632 3.00000000000003 6.52117249089202e-15
    vertex 11.928203230275507 6.00000000000003 1.4981071938535712e-14
  endloop
endfacet
facet normal -1.954946446907528e-17 1.0 2.1686154364591526e-16
  outer loop
    vertex 1.214475255757097e-15 11.000000000000023 3.0000000000000027
    vertex 37.99999999999999 11.000000000000025 3.3487101980256357e-15
    vertex 0.0 11.000000000000025 3.3487101980256357e-15
  endloop
endfacet
facet normal -1.954946446907528e-17 1.0 2.1686154364591526e-16
  outer loop
    vertex 37.99999999999999 11.000000000000025 3.3487101980256357e-15
    vertex 1.214475255757097e-15 11.000000000000023 3.0000000000000027
    vertex 38.0 11.000000000000025 2.9999999999998956
  endloop
endfacet
facet normal -0.8660254037844387 -0.5000000000000001 -2.0380306710391317e-15
  outer loop
    vertex 11.928203230275507 6.000000000000026 1.0000000000000044
    vertex 13.660254037844386 3.0000000000000298 9.693634783758404e-15
    vertex 13.660254037844382 3.0000000000000266 0.9999999999999992
  endloop
endfacet
facet normal -0.8660254037844387 -0.5000000000000001 -2.0380306710391317e-15
  outer loop
    vertex 13.660254037844386 3.0000000000000298 9.693634783758404e-15
    vertex 11.928203230275507 6.000000000000026 1.0000000000000044
    vertex 11.928203230275507 6.00000000000003 1.4981071938535712e-14
  endloop
endfacet
facet normal -0.8660254037844387 -0.5000000000000003 -2.3409160730770298e-15
  outer loop
    vertex 22.320508075688767 6.000000000000026 1.000000000000014
    vertex 24.05255888325765 3.000000000000029 1.9211021662357558e-14
    vertex 24.052558883257646 3.0000000000000253 1.0000000000000087
  endloop
endfacet
facet normal -0.8660254037844387 -0.5000000000000003 -2.3409160730770298e-15
  outer loop
    vertex 24.05255888325765 3.000000000000029 1.9211021662357558e-14
    vertex 22.320508075688767 6.000000000000026 1.000000000000014
    vertex 22.32050807568877 6.000000000000028 2.449845881713487e-14
  endloop
endfacet
facet normal -0.8660254037844387 -0.5000000000000003 -1.099085924721645e-15
  outer loop
    vertex 25.78460969082652 6.000000000000024 1.000000000000017
    vertex 27.5166604983954 3.0000000000000284 2.2383483955223945e-14
    vertex 27.5166604983954 3.0000000000000253 1.000000000000012
  endloop
endfacet
facet normal -0.8660254037844387 -0.5000000000000003 -1.099085924721645e-15
  outer loop
    vertex 27.5166604983954 3.0000000000000284 2.2383483955223945e-14
    vertex 25.78460969082652 6.000000000000024 1.000000000000017
    vertex 25.78460969082652 6.000000000000028 2.7670921110001253e-14
  endloop
endfacet
facet normal -0.8660254037844387 -0.5000000000000003 -1.099085924721645e-15
  outer loop
    vertex 29.248711305964278 6.000000000000024 1.0000000000000204
    vertex 30.980762113533153 3.000000000000028 2.5555946248090332e-14
    vertex 30.980762113533153 3.000000000000025 1.000000000000015
  endloop
endfacet
facet normal -0.8660254037844387 -0.5000000000000003 -1.099085924721645e-15
  outer loop
    vertex 30.980762113533153 3.000000000000028 2.5555946248090332e-14
    vertex 29.248711305964278 6.000000000000024 1.0000000000000204
    vertex 29.248711305964278 6.000000000000027 3.0843383402867636e-14
  endloop
endfacet
facet normal -0.866025403784439 -0.4999999999999996 -2.3409160730770325e-15
  outer loop
    vertex 18.856406460551014 6.000000000000026 1.0000000000000109
    vertex 20.588457268119893 3.000000000000029 1.6038559369491175e-14
    vertex 20.58845726811989 3.0000000000000258 1.0000000000000056
  endloop
endfacet
facet normal -0.866025403784439 -0.4999999999999996 -2.3409160730770325e-15
  outer loop
    vertex 20.588457268119893 3.000000000000029 1.6038559369491175e-14
    vertex 18.856406460551014 6.000000000000026 1.0000000000000109
    vertex 18.856406460551018 6.000000000000028 2.1325996524268483e-14
  endloop
endfacet
facet normal 0.8660254037844385 -0.5000000000000003 -1.121504947751954e-15
  outer loop
    vertex 27.5166604983954 3.0000000000000284 2.2383483955223945e-14
    vertex 29.248711305964278 6.000000000000024 1.0000000000000204
    vertex 27.5166604983954 3.0000000000000253 1.000000000000012
  endloop
endfacet
facet normal 0.8660254037844385 -0.5000000000000003 -1.121504947751954e-15
  outer loop
    vertex 29.248711305964278 6.000000000000024 1.0000000000000204
    vertex 27.5166604983954 3.0000000000000284 2.2383483955223945e-14
    vertex 29.248711305964278 6.000000000000027 3.0843383402867636e-14
  endloop
endfacet
facet normal 0.8660254037844394 -0.4999999999999987 -5.157341436761657e-16
  outer loop
    vertex 24.05255888325765 3.000000000000029 1.9211021662357558e-14
    vertex 25.78460969082652 6.000000000000024 1.000000000000017
    vertex 24.052558883257646 3.0000000000000253 1.0000000000000087
  endloop
endfacet
facet normal 0.8660254037844394 -0.4999999999999987 -5.157341436761657e-16
  outer loop
    vertex 25.78460969082652 6.000000000000024 1.000000000000017
    vertex 24.05255888325765 3.000000000000029 1.9211021662357558e-14
    vertex 25.78460969082652 6.000000000000028 2.7670921110001253e-14
  endloop
endfacet
facet normal 2.516107124096048e-15 -1.6260634543399674e-15 1.0
  outer loop
    vertex 5.0 2.5957500753659315e-14 2.99999999999999
    vertex 4.999999999999998 8.500000000000027 2.999999999999998
    vertex 2.27196268671255e-15 2.5957500753659315e-14 3.0000000000000013
  endloop
endfacet
facet normal 2.516107124096048e-15 -1.6260634543399674e-15 1.0
  outer loop
    vertex 1.214475255757097e-15 11.000000000000023 3.0000000000000027
    vertex 4.999999999999998 8.500000000000027 2.999999999999998
    vertex 38.0 11.000000000000025 2.9999999999998956
  endloop
endfacet
facet normal 2.516107124096048e-15 -1.6260634543399674e-15 1.0
  outer loop
    vertex 4.999999999999998 8.500000000000027 2.999999999999998
    vertex 1.214475255757097e-15 11.000000000000023 3.0000000000000027
    vertex 2.27196268671255e-15 2.5957500753659315e-14 3.0000000000000013
  endloop
endfacet
facet normal 2.516107124096048e-15 -1.6260634543399674e-15 1.0
  outer loop
    vertex 38.0 11.000000000000025 2.9999999999998956
    vertex 4.999999999999998 8.500000000000027 2.999999999999998
    vertex 32.712812921102035 8.500000000000027 3.000000000000004
  endloop
endfacet
facet normal 2.516107124096048e-15 -1.6260634543399674e-15 1.0
  outer loop
    vertex 38.0 11.000000000000025 2.9999999999998956
    vertex 32.712812921102035 8.500000000000027 3.000000000000004
    vertex 32.712812921102035 7.59501282026429e-16 2.9999999999999014
  endloop
endfacet
facet normal 2.516107124096048e-15 -1.6260634543399674e-15 1.0
  outer loop
    vertex 38.0 11.000000000000025 2.9999999999998956
    vertex 32.712812921102035 7.59501282026429e-16 2.9999999999999014
    vertex 38.0 7.59501282026429e-16 2.9999999999998903
  endloop
endfacet
facet normal 0.8660254037844385 -0.5000000000000003 9.003666039964049e-17
  outer loop
    vertex 20.588457268119893 3.000000000000029 1.6038559369491175e-14
    vertex 22.320508075688767 6.000000000000026 1.000000000000014
    vertex 20.58845726811989 3.0000000000000258 1.0000000000000056
  endloop
endfacet
facet normal 0.8660254037844385 -0.5000000000000003 9.003666039964049e-17
  outer loop
    vertex 22.320508075688767 6.000000000000026 1.000000000000014
    vertex 20.588457268119893 3.000000000000029 1.6038559369491175e-14
    vertex 22.32050807568877 6.000000000000028 2.449845881713487e-14
  endloop
endfacet
facet normal -1.0 -1.5887135112946209e-16 1.5092778357298828e-15
  outer loop
    vertex 32.712812921102035 8.500000000000027 3.000000000000004
    vertex 32.712812921102035 3.1724622928663847e-15 2.3969715101657118e-14
    vertex 32.712812921102035 7.59501282026429e-16 2.9999999999999014
  endloop
endfacet
facet normal -1.0 -1.5887135112946209e-16 1.5092778357298828e-15
  outer loop
    vertex 32.712812921102035 3.1724622928663847e-15 2.3969715101657118e-14
    vertex 32.712812921102035 8.500000000000027 3.000000000000004
    vertex 32.712812921102035 6.000000000000024 1.0000000000000235
  endloop
endfacet
facet normal -1.0 -1.5887135112946209e-16 1.5092778357298828e-15
  outer loop
    vertex 32.712812921102035 6.000000000000024 1.0000000000000235
    vertex 32.712812921102035 8.500000000000027 3.000000000000004
    vertex 32.712812921102035 8.500000000000027 1.0000000000000044
  endloop
endfacet
facet normal -1.0 -1.5887135112946209e-16 1.5092778357298828e-15
  outer loop
    vertex 32.712812921102035 6.000000000000027 3.401584569573402e-14
    vertex 32.712812921102035 3.1724622928663847e-15 2.3969715101657118e-14
    vertex 32.712812921102035 6.000000000000024 1.0000000000000235
  endloop
endfacet
endsolid WandhalterNagelBilderrahmen_klein
