solid Untitled-6395f930
facet normal 0.5539685169356962 0.8093285963610021 -0.19520785167711827
  outer loop
    vertex 5.976841252704869 5.981903503842605 15.0
    vertex 5.8191468776560855 4.883855636379984 10.000000000000002
    vertex 5.495610349541245 5.105309631037003 10.000000000000002
  endloop
endfacet
facet normal 0.5539685169356962 0.8093285963610021 -0.19520785167711827
  outer loop
    vertex 5.8191468776560855 4.883855636379984 10.000000000000002
    vertex 5.976841252704869 5.981903503842605 15.0
    vertex 6.462146044877131 5.6497225118570755 15.0
  endloop
endfacet
facet normal 0.38543199073640855 0.9018514706760605 -0.19520785167711818
  outer loop
    vertex 5.436056159339074 6.213023463030898 15.0
    vertex 5.495610349541245 5.105309631037003 10.000000000000002
    vertex 5.135086953964048 5.259389603829199 10.000000000000002
  endloop
endfacet
facet normal 0.38543199073640855 0.9018514706760605 -0.19520785167711818
  outer loop
    vertex 5.495610349541245 5.105309631037003 10.000000000000002
    vertex 5.436056159339074 6.213023463030898 15.0
    vertex 5.976841252704869 5.981903503842605 15.0
  endloop
endfacet
facet normal 0.9102468648740473 0.36516371620216115 -0.1952078516771181
  outer loop
    vertex 6.307425212533247 4.275129090549023 10.000000000000002
    vertex 7.413529863466826 4.19081339601749 15.0
    vertex 6.453402756715885 3.911249559153586 10.000000000000002
  endloop
endfacet
facet normal 0.9102468648740473 0.36516371620216115 -0.1952078516771181
  outer loop
    vertex 7.413529863466826 4.19081339601749 15.0
    vertex 6.307425212533247 4.275129090549023 10.000000000000002
    vertex 7.1945635471928675 4.7366326931106455 15.0
  endloop
endfacet
facet normal 0.8215168196191698 0.5357275517708686 -0.19520785167711815
  outer loop
    vertex 6.0932632109744915 4.603537972679979 10.000000000000002
    vertex 7.1945635471928675 4.7366326931106455 15.0
    vertex 6.307425212533247 4.275129090549023 10.000000000000002
  endloop
endfacet
facet normal 0.8215168196191698 0.5357275517708686 -0.19520785167711815
  outer loop
    vertex 7.1945635471928675 4.7366326931106455 15.0
    vertex 6.0932632109744915 4.603537972679979 10.000000000000002
    vertex 6.8733205448547405 5.229246016307068 15.0
  endloop
endfacet
facet normal 0.7012163436982662 0.6857036779644975 -0.19520785167711818
  outer loop
    vertex 5.8191468776560855 4.883855636379984 10.000000000000002
    vertex 6.8733205448547405 5.229246016307068 15.0
    vertex 6.0932632109744915 4.603537972679979 10.000000000000002
  endloop
endfacet
facet normal 0.7012163436982662 0.6857036779644975 -0.19520785167711818
  outer loop
    vertex 6.8733205448547405 5.229246016307068 15.0
    vertex 5.8191468776560855 4.883855636379984 10.000000000000002
    vertex 6.462146044877131 5.6497225118570755 15.0
  endloop
endfacet
facet normal 0.9597166987371695 -0.20208352928587076 -0.19520785167711804
  outer loop
    vertex 6.4404162616173934 2.7501834746757483 10.000000000000002
    vertex 7.515227236792112 3.0246975959977926 15.0
    vertex 7.394050120819095 2.449214269300733 15.0
  endloop
endfacet
facet normal 0.9597166987371695 -0.20208352928587076 -0.19520785167711804
  outer loop
    vertex 7.515227236792112 3.0246975959977926 15.0
    vertex 6.4404162616173934 2.7501834746757483 10.000000000000002
    vertex 6.521201005599406 3.133839025807122 10.000000000000002
  endloop
endfacet
facet normal 0.9807005522811336 -0.010969111134626416 -0.19520785167711815
  outer loop
    vertex 6.521201005599406 3.133839025807122 10.000000000000002
    vertex 7.52180474093992 3.612763654515913 15.0
    vertex 7.515227236792112 3.0246975959977926 15.0
  endloop
endfacet
facet normal 0.9807005522811336 -0.010969111134626416 -0.19520785167711815
  outer loop
    vertex 7.52180474093992 3.612763654515913 15.0
    vertex 6.521201005599406 3.133839025807122 10.000000000000002
    vertex 6.525586008364612 3.525883064819202 10.000000000000002
  endloop
endfacet
facet normal 0.9018514706760611 -0.38543199073640727 -0.195207851677118
  outer loop
    vertex 6.286336288825198 2.3896600790985523 10.000000000000002
    vertex 7.394050120819095 2.449214269300733 15.0
    vertex 7.162930161630802 1.9084291759349352 15.0
  endloop
endfacet
facet normal 0.9018514706760611 -0.38543199073640727 -0.195207851677118
  outer loop
    vertex 7.394050120819095 2.449214269300733 15.0
    vertex 6.286336288825198 2.3896600790985523 10.000000000000002
    vertex 6.4404162616173934 2.7501834746757483 10.000000000000002
  endloop
endfacet
facet normal 0.9639966335841398 0.18056684380597138 -0.19520785167711813
  outer loop
    vertex 6.453402756715885 3.911249559153586 10.000000000000002
    vertex 7.52180474093992 3.612763654515913 15.0
    vertex 6.525586008364612 3.525883064819202 10.000000000000002
  endloop
endfacet
facet normal 0.9639966335841398 0.18056684380597138 -0.19520785167711813
  outer loop
    vertex 7.52180474093992 3.612763654515913 15.0
    vertex 6.453402756715885 3.911249559153586 10.000000000000002
    vertex 7.413529863466826 4.19081339601749 15.0
  endloop
endfacet
facet normal 0.8093285963610033 -0.553968516935694 -0.19520785167711818
  outer loop
    vertex 6.064882294168179 2.066123550983711 10.000000000000002
    vertex 7.162930161630802 1.9084291759349352 15.0
    vertex 6.830749169645276 1.4231243837626721 15.0
  endloop
endfacet
facet normal 0.8093285963610033 -0.553968516935694 -0.19520785167711818
  outer loop
    vertex 7.162930161630802 1.9084291759349352 15.0
    vertex 6.064882294168179 2.066123550983711 10.000000000000002
    vertex 6.286336288825198 2.3896600790985523 10.000000000000002
  endloop
endfacet
facet normal 0.6857036779644975 -0.7012163436982662 -0.19520785167711815
  outer loop
    vertex 6.830749169645276 1.4231243837626721 15.0
    vertex 5.784564630468174 1.7920072176653046 10.000000000000002
    vertex 6.064882294168179 2.066123550983711 10.000000000000002
  endloop
endfacet
facet normal 0.6857036779644975 -0.7012163436982662 -0.19520785167711815
  outer loop
    vertex 5.784564630468174 1.7920072176653046 10.000000000000002
    vertex 6.830749169645276 1.4231243837626721 15.0
    vertex 6.4102726740952685 1.0119498837850618 15.0
  endloop
endfacet
facet normal 0.0 0.0 -1.0
  outer loop
    vertex 2.545096080828586 3.570404745044481 0.0
    vertex 2.612894329712108 2.7929942116980166 0.0
    vertex 2.5407110780633797 3.1783607060324 0.0
  endloop
endfacet
facet normal 0.0 0.0 -1.0
  outer loop
    vertex 2.612894329712108 2.7929942116980166 0.0
    vertex 2.545096080828586 3.570404745044481 0.0
    vertex 2.625880824810599 3.954060296175854 0.0
  endloop
endfacet
facet normal 0.0 0.0 -1.0
  outer loop
    vertex 2.612894329712108 2.7929942116980166 0.0
    vertex 2.625880824810599 3.954060296175854 0.0
    vertex 2.7588718738947438 2.42911468030258 0.0
  endloop
endfacet
facet normal 0.0 0.0 -1.0
  outer loop
    vertex 2.7588718738947438 2.42911468030258 0.0
    vertex 2.625880824810599 3.954060296175854 0.0
    vertex 2.7799607976027945 4.314583691753051 0.0
  endloop
endfacet
facet normal 0.0 0.0 -1.0
  outer loop
    vertex 2.7588718738947438 2.42911468030258 0.0
    vertex 2.7799607976027945 4.314583691753051 0.0
    vertex 2.9730338754535 2.100705798171624 0.0
  endloop
endfacet
facet normal 0.0 0.0 -1.0
  outer loop
    vertex 2.9730338754535 2.100705798171624 0.0
    vertex 2.7799607976027945 4.314583691753051 0.0
    vertex 3.001414792259814 4.638120219867892 0.0
  endloop
endfacet
facet normal 0.0 0.0 -1.0
  outer loop
    vertex 2.9730338754535 2.100705798171624 0.0
    vertex 3.001414792259814 4.638120219867892 0.0
    vertex 3.2471502087719064 1.820388134471619 0.0
  endloop
endfacet
facet normal 0.0 0.0 -1.0
  outer loop
    vertex 3.2471502087719064 1.820388134471619 0.0
    vertex 3.001414792259814 4.638120219867892 0.0
    vertex 3.281732455959818 4.912236553186299 0.0
  endloop
endfacet
facet normal 0.0 0.0 -1.0
  outer loop
    vertex 3.2471502087719064 1.820388134471619 0.0
    vertex 3.281732455959818 4.912236553186299 0.0
    vertex 3.570686736886747 1.5989341398146002 0.0
  endloop
endfacet
facet normal 0.0 0.0 -1.0
  outer loop
    vertex 3.570686736886747 1.5989341398146002 0.0
    vertex 3.281732455959818 4.912236553186299 0.0
    vertex 3.610141338090774 5.126398554745053 0.0
  endloop
endfacet
facet normal 0.0 0.0 -1.0
  outer loop
    vertex 3.570686736886747 1.5989341398146002 0.0
    vertex 3.610141338090774 5.126398554745053 0.0
    vertex 3.9312101324639444 1.444854167022404 0.0
  endloop
endfacet
facet normal 0.0 0.0 -1.0
  outer loop
    vertex 3.9312101324639444 1.444854167022404 0.0
    vertex 3.610141338090774 5.126398554745053 0.0
    vertex 3.974020869486211 5.27237609892769 0.0
  endloop
endfacet
facet normal 0.0 0.0 -1.0
  outer loop
    vertex 3.9312101324639444 1.444854167022404 0.0
    vertex 3.974020869486211 5.27237609892769 0.0
    vertex 4.314865683595317 1.3640694230403914 0.0
  endloop
endfacet
facet normal 0.0 0.0 -1.0
  outer loop
    vertex 4.314865683595317 1.3640694230403914 0.0
    vertex 3.974020869486211 5.27237609892769 0.0
    vertex 4.359387363820595 5.344559350576419 0.0
  endloop
endfacet
facet normal 0.0 0.0 -1.0
  outer loop
    vertex 4.314865683595317 1.3640694230403914 0.0
    vertex 4.359387363820595 5.344559350576419 0.0
    vertex 4.7069097226073975 1.359684420275185 0.0
  endloop
endfacet
facet normal 0.0 0.0 -1.0
  outer loop
    vertex 4.7069097226073975 1.359684420275185 0.0
    vertex 4.359387363820595 5.344559350576419 0.0
    vertex 4.751431402832674 5.340174347811211 0.0
  endloop
endfacet
facet normal 0.0 0.0 -1.0
  outer loop
    vertex 4.7069097226073975 1.359684420275185 0.0
    vertex 4.751431402832674 5.340174347811211 0.0
    vertex 5.09227621694178 1.4318676719239125 0.0
  endloop
endfacet
facet normal 0.0 0.0 -1.0
  outer loop
    vertex 5.09227621694178 1.4318676719239125 0.0
    vertex 4.751431402832674 5.340174347811211 0.0
    vertex 5.135086953964048 5.259389603829199 0.0
  endloop
endfacet
facet normal 0.0 0.0 -1.0
  outer loop
    vertex 5.09227621694178 1.4318676719239125 0.0
    vertex 5.135086953964048 5.259389603829199 0.0
    vertex 5.456155748337218 1.5778452161065488 0.0
  endloop
endfacet
facet normal 0.0 0.0 -1.0
  outer loop
    vertex 5.456155748337218 1.5778452161065488 0.0
    vertex 5.135086953964048 5.259389603829199 0.0
    vertex 5.495610349541245 5.105309631037003 0.0
  endloop
endfacet
facet normal 0.0 0.0 -1.0
  outer loop
    vertex 5.456155748337218 1.5778452161065488 0.0
    vertex 5.495610349541245 5.105309631037003 0.0
    vertex 5.784564630468174 1.7920072176653046 0.0
  endloop
endfacet
facet normal 0.0 0.0 -1.0
  outer loop
    vertex 5.784564630468174 1.7920072176653046 0.0
    vertex 5.495610349541245 5.105309631037003 0.0
    vertex 5.8191468776560855 4.883855636379984 0.0
  endloop
endfacet
facet normal 0.0 0.0 -1.0
  outer loop
    vertex 5.784564630468174 1.7920072176653046 0.0
    vertex 5.8191468776560855 4.883855636379984 0.0
    vertex 6.064882294168179 2.066123550983711 0.0
  endloop
endfacet
facet normal 0.0 0.0 -1.0
  outer loop
    vertex 6.064882294168179 2.066123550983711 0.0
    vertex 5.8191468776560855 4.883855636379984 0.0
    vertex 6.0932632109744915 4.603537972679979 0.0
  endloop
endfacet
facet normal 0.0 0.0 -1.0
  outer loop
    vertex 6.064882294168179 2.066123550983711 0.0
    vertex 6.0932632109744915 4.603537972679979 0.0
    vertex 6.286336288825198 2.3896600790985523 0.0
  endloop
endfacet
facet normal 0.0 0.0 -1.0
  outer loop
    vertex 6.286336288825198 2.3896600790985523 0.0
    vertex 6.0932632109744915 4.603537972679979 0.0
    vertex 6.307425212533247 4.275129090549023 0.0
  endloop
endfacet
facet normal 0.0 0.0 -1.0
  outer loop
    vertex 6.286336288825198 2.3896600790985523 0.0
    vertex 6.307425212533247 4.275129090549023 0.0
    vertex 6.4404162616173934 2.7501834746757483 0.0
  endloop
endfacet
facet normal 0.0 0.0 -1.0
  outer loop
    vertex 6.4404162616173934 2.7501834746757483 0.0
    vertex 6.307425212533247 4.275129090549023 0.0
    vertex 6.453402756715885 3.911249559153586 0.0
  endloop
endfacet
facet normal 0.0 0.0 -1.0
  outer loop
    vertex 6.4404162616173934 2.7501834746757483 0.0
    vertex 6.453402756715885 3.911249559153586 0.0
    vertex 6.521201005599406 3.133839025807122 0.0
  endloop
endfacet
facet normal 0.0 0.0 -1.0
  outer loop
    vertex 6.521201005599406 3.133839025807122 0.0
    vertex 6.453402756715885 3.911249559153586 0.0
    vertex 6.525586008364612 3.525883064819202 0.0
  endloop
endfacet
facet normal -0.6857036779644978 0.701216343698266 -0.19520785167711802
  outer loop
    vertex 2.235547916782723 5.281119387088938 15.0
    vertex 3.281732455959818 4.912236553186299 10.000000000000002
    vertex 3.001414792259814 4.638120219867892 10.000000000000002
  endloop
endfacet
facet normal -0.6857036779644978 0.701216343698266 -0.19520785167711802
  outer loop
    vertex 3.281732455959818 4.912236553186299 10.000000000000002
    vertex 2.235547916782723 5.281119387088938 15.0
    vertex 2.6560244123327292 5.692293887066546 15.0
  endloop
endfacet
facet normal -0.9018514706760603 0.3854319907364092 -0.19520785167711813
  outer loop
    vertex 1.6722469656088996 4.2550295015508794 15.0
    vertex 2.7799607976027945 4.314583691753051 10.000000000000002
    vertex 2.625880824810599 3.954060296175854 10.000000000000002
  endloop
endfacet
facet normal -0.9018514706760603 0.3854319907364092 -0.19520785167711813
  outer loop
    vertex 2.7799607976027945 4.314583691753051 10.000000000000002
    vertex 1.6722469656088996 4.2550295015508794 15.0
    vertex 1.9033669247971934 4.795814594916676 15.0
  endloop
endfacet
facet normal -0.8093285963610021 0.5539685169356962 -0.1952078516771181
  outer loop
    vertex 1.9033669247971934 4.795814594916676 15.0
    vertex 3.001414792259814 4.638120219867892 10.000000000000002
    vertex 2.7799607976027945 4.314583691753051 10.000000000000002
  endloop
endfacet
facet normal -0.8093285963610021 0.5539685169356962 -0.1952078516771181
  outer loop
    vertex 3.001414792259814 4.638120219867892 10.000000000000002
    vertex 1.9033669247971934 4.795814594916676 15.0
    vertex 2.235547916782723 5.281119387088938 15.0
  endloop
endfacet
facet normal 0.7149710314887252 0.6991540775336638 0.0
  outer loop
    vertex 5.8191468776560855 4.883855636379984 0.0
    vertex 6.0932632109744915 4.603537972679979 10.000000000000002
    vertex 6.0932632109744915 4.603537972679979 0.0
  endloop
endfacet
facet normal 0.7149710314887252 0.6991540775336638 0.0
  outer loop
    vertex 6.0932632109744915 4.603537972679979 10.000000000000002
    vertex 5.8191468776560855 4.883855636379984 0.0
    vertex 5.8191468776560855 4.883855636379984 10.000000000000002
  endloop
endfacet
facet normal 0.8376312577237887 0.5462360992135763 0.0
  outer loop
    vertex 6.0932632109744915 4.603537972679979 0.0
    vertex 6.307425212533247 4.275129090549023 10.000000000000002
    vertex 6.307425212533247 4.275129090549023 0.0
  endloop
endfacet
facet normal 0.8376312577237887 0.5462360992135763 0.0
  outer loop
    vertex 6.307425212533247 4.275129090549023 10.000000000000002
    vertex 6.0932632109744915 4.603537972679979 0.0
    vertex 6.0932632109744915 4.603537972679979 10.000000000000002
  endloop
endfacet
facet normal 0.9281017844735471 0.37232657393344604 0.0
  outer loop
    vertex 6.307425212533247 4.275129090549023 0.0
    vertex 6.453402756715885 3.911249559153586 10.000000000000002
    vertex 6.453402756715885 3.911249559153586 0.0
  endloop
endfacet
facet normal 0.9281017844735471 0.37232657393344604 0.0
  outer loop
    vertex 6.453402756715885 3.911249559153586 10.000000000000002
    vertex 6.307425212533247 4.275129090549023 0.0
    vertex 6.307425212533247 4.275129090549023 10.000000000000002
  endloop
endfacet
facet normal 0.9829058801314646 0.18410874722019846 0.0
  outer loop
    vertex 6.453402756715885 3.911249559153586 0.0
    vertex 6.525586008364612 3.525883064819202 10.000000000000002
    vertex 6.525586008364612 3.525883064819202 0.0
  endloop
endfacet
facet normal 0.9829058801314646 0.18410874722019846 0.0
  outer loop
    vertex 6.525586008364612 3.525883064819202 10.000000000000002
    vertex 6.453402756715885 3.911249559153586 0.0
    vertex 6.453402756715885 3.911249559153586 10.000000000000002
  endloop
endfacet
facet normal 0.9999374540358972 -0.011184275399338759 0.0
  outer loop
    vertex 6.525586008364612 3.525883064819202 0.0
    vertex 6.521201005599406 3.133839025807122 10.000000000000002
    vertex 6.521201005599406 3.133839025807122 0.0
  endloop
endfacet
facet normal 0.9999374540358972 -0.011184275399338759 0.0
  outer loop
    vertex 6.521201005599406 3.133839025807122 10.000000000000002
    vertex 6.525586008364612 3.525883064819202 0.0
    vertex 6.525586008364612 3.525883064819202 10.000000000000002
  endloop
endfacet
facet normal 0.9785419923531151 -0.2060474925875004 0.0
  outer loop
    vertex 6.521201005599406 3.133839025807122 0.0
    vertex 6.4404162616173934 2.7501834746757483 10.000000000000002
    vertex 6.4404162616173934 2.7501834746757483 0.0
  endloop
endfacet
facet normal 0.9785419923531151 -0.2060474925875004 0.0
  outer loop
    vertex 6.4404162616173934 2.7501834746757483 10.000000000000002
    vertex 6.521201005599406 3.133839025807122 0.0
    vertex 6.521201005599406 3.133839025807122 10.000000000000002
  endloop
endfacet
facet normal 0.9195417106768745 -0.3929924201882874 0.0
  outer loop
    vertex 6.4404162616173934 2.7501834746757483 0.0
    vertex 6.286336288825198 2.3896600790985523 10.000000000000002
    vertex 6.286336288825198 2.3896600790985523 0.0
  endloop
endfacet
facet normal 0.9195417106768745 -0.3929924201882874 0.0
  outer loop
    vertex 6.286336288825198 2.3896600790985523 10.000000000000002
    vertex 6.4404162616173934 2.7501834746757483 0.0
    vertex 6.4404162616173934 2.7501834746757483 10.000000000000002
  endloop
endfacet
facet normal 0.8252039567442541 -0.5648348694739262 0.0
  outer loop
    vertex 6.286336288825198 2.3896600790985523 0.0
    vertex 6.064882294168179 2.066123550983711 10.000000000000002
    vertex 6.064882294168179 2.066123550983711 0.0
  endloop
endfacet
facet normal 0.8252039567442541 -0.5648348694739262 0.0
  outer loop
    vertex 6.064882294168179 2.066123550983711 10.000000000000002
    vertex 6.286336288825198 2.3896600790985523 0.0
    vertex 6.286336288825198 2.3896600790985523 10.000000000000002
  endloop
endfacet
facet normal 0.6991540775336638 -0.7149710314887252 0.0
  outer loop
    vertex 6.064882294168179 2.066123550983711 10.000000000000002
    vertex 5.784564630468174 1.7920072176653046 0.0
    vertex 6.064882294168179 2.066123550983711 0.0
  endloop
endfacet
facet normal 0.6991540775336638 -0.7149710314887252 0.0
  outer loop
    vertex 5.784564630468174 1.7920072176653046 0.0
    vertex 6.064882294168179 2.066123550983711 10.000000000000002
    vertex 5.784564630468174 1.7920072176653046 10.000000000000002
  endloop
endfacet
facet normal 0.5462360992135756 -0.8376312577237891 0.0
  outer loop
    vertex 5.784564630468174 1.7920072176653046 10.000000000000002
    vertex 5.456155748337218 1.5778452161065488 0.0
    vertex 5.784564630468174 1.7920072176653046 0.0
  endloop
endfacet
facet normal 0.5462360992135756 -0.8376312577237891 0.0
  outer loop
    vertex 5.456155748337218 1.5778452161065488 0.0
    vertex 5.784564630468174 1.7920072176653046 10.000000000000002
    vertex 5.456155748337218 1.5778452161065488 10.000000000000002
  endloop
endfacet
facet normal 0.37232657393344587 -0.928101784473547 0.0
  outer loop
    vertex 5.456155748337218 1.5778452161065488 10.000000000000002
    vertex 5.09227621694178 1.4318676719239125 0.0
    vertex 5.456155748337218 1.5778452161065488 0.0
  endloop
endfacet
facet normal 0.37232657393344587 -0.928101784473547 0.0
  outer loop
    vertex 5.09227621694178 1.4318676719239125 0.0
    vertex 5.456155748337218 1.5778452161065488 10.000000000000002
    vertex 5.09227621694178 1.4318676719239125 10.000000000000002
  endloop
endfacet
facet normal 0.18410874722020018 -0.9829058801314644 0.0
  outer loop
    vertex 5.09227621694178 1.4318676719239125 10.000000000000002
    vertex 4.7069097226073975 1.359684420275185 0.0
    vertex 5.09227621694178 1.4318676719239125 0.0
  endloop
endfacet
facet normal 0.18410874722020018 -0.9829058801314644 0.0
  outer loop
    vertex 4.7069097226073975 1.359684420275185 0.0
    vertex 5.09227621694178 1.4318676719239125 10.000000000000002
    vertex 4.7069097226073975 1.359684420275185 10.000000000000002
  endloop
endfacet
facet normal -0.011184275399340558 -0.9999374540358972 0.0
  outer loop
    vertex 4.7069097226073975 1.359684420275185 10.000000000000002
    vertex 4.314865683595317 1.3640694230403914 0.0
    vertex 4.7069097226073975 1.359684420275185 0.0
  endloop
endfacet
facet normal -0.011184275399340558 -0.9999374540358972 0.0
  outer loop
    vertex 4.314865683595317 1.3640694230403914 0.0
    vertex 4.7069097226073975 1.359684420275185 10.000000000000002
    vertex 4.314865683595317 1.3640694230403914 10.000000000000002
  endloop
endfacet
facet normal -0.20604749258750063 -0.9785419923531151 0.0
  outer loop
    vertex 4.314865683595317 1.3640694230403914 10.000000000000002
    vertex 3.9312101324639444 1.444854167022404 0.0
    vertex 4.314865683595317 1.3640694230403914 0.0
  endloop
endfacet
facet normal -0.20604749258750063 -0.9785419923531151 0.0
  outer loop
    vertex 3.9312101324639444 1.444854167022404 0.0
    vertex 4.314865683595317 1.3640694230403914 10.000000000000002
    vertex 3.9312101324639444 1.444854167022404 10.000000000000002
  endloop
endfacet
facet normal -0.39299242018828756 -0.9195417106768743 0.0
  outer loop
    vertex 3.9312101324639444 1.444854167022404 10.000000000000002
    vertex 3.570686736886747 1.5989341398146002 0.0
    vertex 3.9312101324639444 1.444854167022404 0.0
  endloop
endfacet
facet normal -0.39299242018828756 -0.9195417106768743 0.0
  outer loop
    vertex 3.570686736886747 1.5989341398146002 0.0
    vertex 3.9312101324639444 1.444854167022404 10.000000000000002
    vertex 3.570686736886747 1.5989341398146002 10.000000000000002
  endloop
endfacet
facet normal -0.5648348694739258 -0.8252039567442544 0.0
  outer loop
    vertex 3.570686736886747 1.5989341398146002 10.000000000000002
    vertex 3.2471502087719064 1.820388134471619 0.0
    vertex 3.570686736886747 1.5989341398146002 0.0
  endloop
endfacet
facet normal -0.5648348694739258 -0.8252039567442544 0.0
  outer loop
    vertex 3.2471502087719064 1.820388134471619 0.0
    vertex 3.570686736886747 1.5989341398146002 10.000000000000002
    vertex 3.2471502087719064 1.820388134471619 10.000000000000002
  endloop
endfacet
facet normal -0.7149710314887262 -0.6991540775336629 0.0
  outer loop
    vertex 2.9730338754535 2.100705798171624 10.000000000000002
    vertex 3.2471502087719064 1.820388134471619 0.0
    vertex 3.2471502087719064 1.820388134471619 10.000000000000002
  endloop
endfacet
facet normal -0.7149710314887262 -0.6991540775336629 0.0
  outer loop
    vertex 3.2471502087719064 1.820388134471619 0.0
    vertex 2.9730338754535 2.100705798171624 10.000000000000002
    vertex 2.9730338754535 2.100705798171624 0.0
  endloop
endfacet
facet normal -0.9807005522811336 0.01096911113462924 -0.1952078516771181
  outer loop
    vertex 1.5510698496358815 3.6795461748538205 15.0
    vertex 2.5407110780633797 3.1783607060324 10.000000000000002
    vertex 1.5444923454880712 3.0914801163356995 15.0
  endloop
endfacet
facet normal -0.9807005522811336 0.01096911113462924 -0.1952078516771181
  outer loop
    vertex 2.5407110780633797 3.1783607060324 10.000000000000002
    vertex 1.5510698496358815 3.6795461748538205 15.0
    vertex 2.545096080828586 3.570404745044481 10.000000000000002
  endloop
endfacet
facet normal -0.982905880131464 -0.18410874722020173 0.0
  outer loop
    vertex 2.5407110780633797 3.1783607060324 10.000000000000002
    vertex 2.612894329712108 2.7929942116980166 0.0
    vertex 2.612894329712108 2.7929942116980166 10.000000000000002
  endloop
endfacet
facet normal -0.982905880131464 -0.18410874722020173 0.0
  outer loop
    vertex 2.612894329712108 2.7929942116980166 0.0
    vertex 2.5407110780633797 3.1783607060324 10.000000000000002
    vertex 2.5407110780633797 3.1783607060324 0.0
  endloop
endfacet
facet normal -0.96399663358414 -0.18056684380597052 -0.19520785167711813
  outer loop
    vertex 1.5444923454880712 3.0914801163356995 15.0
    vertex 2.612894329712108 2.7929942116980166 10.000000000000002
    vertex 1.6527672229611643 2.5134303748341233 15.0
  endloop
endfacet
facet normal -0.96399663358414 -0.18056684380597052 -0.19520785167711813
  outer loop
    vertex 2.612894329712108 2.7929942116980166 10.000000000000002
    vertex 1.5444923454880712 3.0914801163356995 15.0
    vertex 2.5407110780633797 3.1783607060324 10.000000000000002
  endloop
endfacet
facet normal -0.9281017844735472 -0.37232657393344537 0.0
  outer loop
    vertex 2.612894329712108 2.7929942116980166 10.000000000000002
    vertex 2.7588718738947438 2.42911468030258 0.0
    vertex 2.7588718738947438 2.42911468030258 10.000000000000002
  endloop
endfacet
facet normal -0.9281017844735472 -0.37232657393344537 0.0
  outer loop
    vertex 2.7588718738947438 2.42911468030258 0.0
    vertex 2.612894329712108 2.7929942116980166 10.000000000000002
    vertex 2.612894329712108 2.7929942116980166 0.0
  endloop
endfacet
facet normal -0.9102468648740485 -0.3651637162021578 -0.19520785167711815
  outer loop
    vertex 1.6527672229611643 2.5134303748341233 15.0
    vertex 2.7588718738947438 2.42911468030258 10.000000000000002
    vertex 1.8717335392351189 1.9676110777409668 15.0
  endloop
endfacet
facet normal -0.9102468648740485 -0.3651637162021578 -0.19520785167711815
  outer loop
    vertex 2.7588718738947438 2.42911468030258 10.000000000000002
    vertex 1.6527672229611643 2.5134303748341233 15.0
    vertex 2.612894329712108 2.7929942116980166 10.000000000000002
  endloop
endfacet
facet normal -0.8376312577237883 -0.5462360992135767 0.0
  outer loop
    vertex 2.7588718738947438 2.42911468030258 10.000000000000002
    vertex 2.9730338754535 2.100705798171624 0.0
    vertex 2.9730338754535 2.100705798171624 10.000000000000002
  endloop
endfacet
facet normal -0.8376312577237883 -0.5462360992135767 0.0
  outer loop
    vertex 2.9730338754535 2.100705798171624 0.0
    vertex 2.7588718738947438 2.42911468030258 10.000000000000002
    vertex 2.7588718738947438 2.42911468030258 0.0
  endloop
endfacet
facet normal -0.8215168196191697 -0.5357275517708687 -0.19520785167711815
  outer loop
    vertex 1.8717335392351189 1.9676110777409668 15.0
    vertex 2.9730338754535 2.100705798171624 10.000000000000002
    vertex 2.192976541573253 1.474997754544533 15.0
  endloop
endfacet
facet normal -0.8215168196191697 -0.5357275517708687 -0.19520785167711815
  outer loop
    vertex 2.9730338754535 2.100705798171624 10.000000000000002
    vertex 1.8717335392351189 1.9676110777409668 15.0
    vertex 2.7588718738947438 2.42911468030258 10.000000000000002
  endloop
endfacet
facet normal -0.7012163436982669 -0.6857036779644968 -0.1952078516771182
  outer loop
    vertex 2.192976541573253 1.474997754544533 15.0
    vertex 3.2471502087719064 1.820388134471619 10.000000000000002
    vertex 2.604151041550863 1.0545212589945259 15.0
  endloop
endfacet
facet normal -0.7012163436982669 -0.6857036779644968 -0.1952078516771182
  outer loop
    vertex 3.2471502087719064 1.820388134471619 10.000000000000002
    vertex 2.192976541573253 1.474997754544533 15.0
    vertex 2.9730338754535 2.100705798171624 10.000000000000002
  endloop
endfacet
facet normal -0.5539685169356953 -0.8093285963610026 -0.19520785167711818
  outer loop
    vertex 3.0894558337231253 0.7223402670089968 15.0
    vertex 3.2471502087719064 1.820388134471619 10.000000000000002
    vertex 3.570686736886747 1.5989341398146002 10.000000000000002
  endloop
endfacet
facet normal -0.5539685169356953 -0.8093285963610026 -0.19520785167711818
  outer loop
    vertex 3.2471502087719064 1.820388134471619 10.000000000000002
    vertex 3.0894558337231253 0.7223402670089968 15.0
    vertex 2.604151041550863 1.0545212589945259 15.0
  endloop
endfacet
facet normal -0.3854319907364081 -0.9018514706760609 -0.19520785167711818
  outer loop
    vertex 3.630240927088923 0.4912203078207036 15.0
    vertex 3.570686736886747 1.5989341398146002 10.000000000000002
    vertex 3.9312101324639444 1.444854167022404 10.000000000000002
  endloop
endfacet
facet normal -0.3854319907364081 -0.9018514706760609 -0.19520785167711818
  outer loop
    vertex 3.570686736886747 1.5989341398146002 10.000000000000002
    vertex 3.630240927088923 0.4912203078207036 15.0
    vertex 3.0894558337231253 0.7223402670089968 15.0
  endloop
endfacet
facet normal -0.20208352928587117 -0.9597166987371695 -0.19520785167711813
  outer loop
    vertex 4.2057242537859825 0.37004319184768636 15.0
    vertex 3.9312101324639444 1.444854167022404 10.000000000000002
    vertex 4.314865683595317 1.3640694230403914 10.000000000000002
  endloop
endfacet
facet normal -0.20208352928587117 -0.9597166987371695 -0.19520785167711813
  outer loop
    vertex 3.9312101324639444 1.444854167022404 10.000000000000002
    vertex 4.2057242537859825 0.37004319184768636 15.0
    vertex 3.630240927088923 0.4912203078207036 15.0
  endloop
endfacet
facet normal -0.010969111134628005 -0.9807005522811336 -0.19520785167711804
  outer loop
    vertex 4.793790312304102 0.36346568769987736 15.0
    vertex 4.314865683595317 1.3640694230403914 10.000000000000002
    vertex 4.7069097226073975 1.359684420275185 10.000000000000002
  endloop
endfacet
facet normal -0.010969111134628005 -0.9807005522811336 -0.19520785167711804
  outer loop
    vertex 4.314865683595317 1.3640694230403914 10.000000000000002
    vertex 4.793790312304102 0.36346568769987736 15.0
    vertex 4.2057242537859825 0.37004319184768636 15.0
  endloop
endfacet
facet normal 0.18056684380597096 -0.96399663358414 -0.19520785167711807
  outer loop
    vertex 5.371840053805679 0.47174056517297097 15.0
    vertex 4.7069097226073975 1.359684420275185 10.000000000000002
    vertex 5.09227621694178 1.4318676719239125 10.000000000000002
  endloop
endfacet
facet normal 0.18056684380597096 -0.96399663358414 -0.19520785167711807
  outer loop
    vertex 4.7069097226073975 1.359684420275185 10.000000000000002
    vertex 5.371840053805679 0.47174056517297097 15.0
    vertex 4.793790312304102 0.36346568769987736 15.0
  endloop
endfacet
facet normal 0.3651637162021591 -0.9102468648740479 -0.19520785167711807
  outer loop
    vertex 5.917659350898835 0.6907068814469264 15.0
    vertex 5.09227621694178 1.4318676719239125 10.000000000000002
    vertex 5.456155748337218 1.5778452161065488 10.000000000000002
  endloop
endfacet
facet normal 0.3651637162021591 -0.9102468648740479 -0.19520785167711807
  outer loop
    vertex 5.09227621694178 1.4318676719239125 10.000000000000002
    vertex 5.917659350898835 0.6907068814469264 15.0
    vertex 5.371840053805679 0.47174056517297097 15.0
  endloop
endfacet
facet normal 0.5357275517708698 -0.821516819619169 -0.19520785167711804
  outer loop
    vertex 6.4102726740952685 1.0119498837850618 15.0
    vertex 5.456155748337218 1.5778452161065488 10.000000000000002
    vertex 5.784564630468174 1.7920072176653046 10.000000000000002
  endloop
endfacet
facet normal 0.5357275517708698 -0.821516819619169 -0.19520785167711804
  outer loop
    vertex 5.456155748337218 1.5778452161065488 10.000000000000002
    vertex 6.4102726740952685 1.0119498837850618 15.0
    vertex 5.917659350898835 0.6907068814469264 15.0
  endloop
endfacet
facet normal -0.36516371620215865 0.9102468648740482 -0.1952078516771181
  outer loop
    vertex 3.1486377355291633 6.01353688940468 15.0
    vertex 3.974020869486211 5.27237609892769 10.000000000000002
    vertex 3.610141338090774 5.126398554745053 10.000000000000002
  endloop
endfacet
facet normal -0.36516371620215865 0.9102468648740482 -0.1952078516771181
  outer loop
    vertex 3.974020869486211 5.27237609892769 10.000000000000002
    vertex 3.1486377355291633 6.01353688940468 15.0
    vertex 3.694457032622319 6.2325032056786345 15.0
  endloop
endfacet
facet normal -0.5357275517708682 0.8215168196191701 -0.19520785167711813
  outer loop
    vertex 2.6560244123327292 5.692293887066546 15.0
    vertex 3.610141338090774 5.126398554745053 10.000000000000002
    vertex 3.281732455959818 4.912236553186299 10.000000000000002
  endloop
endfacet
facet normal -0.5357275517708682 0.8215168196191701 -0.19520785167711813
  outer loop
    vertex 3.610141338090774 5.126398554745053 10.000000000000002
    vertex 2.6560244123327292 5.692293887066546 15.0
    vertex 3.1486377355291633 6.01353688940468 15.0
  endloop
endfacet
facet normal -0.9999374540358972 0.011184275399340537 0.0
  outer loop
    vertex 2.545096080828586 3.570404745044481 10.000000000000002
    vertex 2.5407110780633797 3.1783607060324 0.0
    vertex 2.5407110780633797 3.1783607060324 10.000000000000002
  endloop
endfacet
facet normal -0.9999374540358972 0.011184275399340537 0.0
  outer loop
    vertex 2.5407110780633797 3.1783607060324 0.0
    vertex 2.545096080828586 3.570404745044481 10.000000000000002
    vertex 2.545096080828586 3.570404745044481 0.0
  endloop
endfacet
facet normal -0.9785419923531151 0.20604749258750063 0.0
  outer loop
    vertex 2.625880824810599 3.954060296175854 10.000000000000002
    vertex 2.545096080828586 3.570404745044481 0.0
    vertex 2.545096080828586 3.570404745044481 10.000000000000002
  endloop
endfacet
facet normal -0.9785419923531151 0.20604749258750063 0.0
  outer loop
    vertex 2.545096080828586 3.570404745044481 0.0
    vertex 2.625880824810599 3.954060296175854 10.000000000000002
    vertex 2.625880824810599 3.954060296175854 0.0
  endloop
endfacet
facet normal -0.9195417106768747 0.3929924201882868 0.0
  outer loop
    vertex 2.7799607976027945 4.314583691753051 10.000000000000002
    vertex 2.625880824810599 3.954060296175854 0.0
    vertex 2.625880824810599 3.954060296175854 10.000000000000002
  endloop
endfacet
facet normal -0.9195417106768747 0.3929924201882868 0.0
  outer loop
    vertex 2.625880824810599 3.954060296175854 0.0
    vertex 2.7799607976027945 4.314583691753051 10.000000000000002
    vertex 2.7799607976027945 4.314583691753051 0.0
  endloop
endfacet
facet normal -0.825203956744254 0.5648348694739265 0.0
  outer loop
    vertex 3.001414792259814 4.638120219867892 10.000000000000002
    vertex 2.7799607976027945 4.314583691753051 0.0
    vertex 2.7799607976027945 4.314583691753051 10.000000000000002
  endloop
endfacet
facet normal -0.825203956744254 0.5648348694739265 0.0
  outer loop
    vertex 2.7799607976027945 4.314583691753051 0.0
    vertex 3.001414792259814 4.638120219867892 10.000000000000002
    vertex 3.001414792259814 4.638120219867892 0.0
  endloop
endfacet
facet normal -0.6991540775336633 0.7149710314887258 0.0
  outer loop
    vertex 3.001414792259814 4.638120219867892 10.000000000000002
    vertex 3.281732455959818 4.912236553186299 0.0
    vertex 3.001414792259814 4.638120219867892 0.0
  endloop
endfacet
facet normal -0.6991540775336633 0.7149710314887258 0.0
  outer loop
    vertex 3.281732455959818 4.912236553186299 0.0
    vertex 3.001414792259814 4.638120219867892 10.000000000000002
    vertex 3.281732455959818 4.912236553186299 10.000000000000002
  endloop
endfacet
facet normal -0.5462360992135746 0.8376312577237898 0.0
  outer loop
    vertex 3.281732455959818 4.912236553186299 10.000000000000002
    vertex 3.610141338090774 5.126398554745053 0.0
    vertex 3.281732455959818 4.912236553186299 0.0
  endloop
endfacet
facet normal -0.5462360992135746 0.8376312577237898 0.0
  outer loop
    vertex 3.610141338090774 5.126398554745053 0.0
    vertex 3.281732455959818 4.912236553186299 10.000000000000002
    vertex 3.610141338090774 5.126398554745053 10.000000000000002
  endloop
endfacet
facet normal -0.37232657393344815 0.9281017844735461 0.0
  outer loop
    vertex 3.610141338090774 5.126398554745053 10.000000000000002
    vertex 3.974020869486211 5.27237609892769 0.0
    vertex 3.610141338090774 5.126398554745053 0.0
  endloop
endfacet
facet normal -0.37232657393344815 0.9281017844735461 0.0
  outer loop
    vertex 3.974020869486211 5.27237609892769 0.0
    vertex 3.610141338090774 5.126398554745053 10.000000000000002
    vertex 3.974020869486211 5.27237609892769 10.000000000000002
  endloop
endfacet
facet normal -0.18410874722019985 0.9829058801314644 0.0
  outer loop
    vertex 3.974020869486211 5.27237609892769 10.000000000000002
    vertex 4.359387363820595 5.344559350576419 0.0
    vertex 3.974020869486211 5.27237609892769 0.0
  endloop
endfacet
facet normal -0.18410874722019985 0.9829058801314644 0.0
  outer loop
    vertex 4.359387363820595 5.344559350576419 0.0
    vertex 3.974020869486211 5.27237609892769 10.000000000000002
    vertex 4.359387363820595 5.344559350576419 10.000000000000002
  endloop
endfacet
facet normal 0.011184275399340558 0.9999374540358972 0.0
  outer loop
    vertex 4.359387363820595 5.344559350576419 10.000000000000002
    vertex 4.751431402832674 5.340174347811211 0.0
    vertex 4.359387363820595 5.344559350576419 0.0
  endloop
endfacet
facet normal 0.011184275399340558 0.9999374540358972 0.0
  outer loop
    vertex 4.751431402832674 5.340174347811211 0.0
    vertex 4.359387363820595 5.344559350576419 10.000000000000002
    vertex 4.751431402832674 5.340174347811211 10.000000000000002
  endloop
endfacet
facet normal 0.20604749258750105 0.9785419923531151 0.0
  outer loop
    vertex 4.751431402832674 5.340174347811211 10.000000000000002
    vertex 5.135086953964048 5.259389603829199 0.0
    vertex 4.751431402832674 5.340174347811211 0.0
  endloop
endfacet
facet normal 0.20604749258750105 0.9785419923531151 0.0
  outer loop
    vertex 5.135086953964048 5.259389603829199 0.0
    vertex 4.751431402832674 5.340174347811211 10.000000000000002
    vertex 5.135086953964048 5.259389603829199 10.000000000000002
  endloop
endfacet
facet normal 0.3929924201882861 0.9195417106768751 0.0
  outer loop
    vertex 5.135086953964048 5.259389603829199 10.000000000000002
    vertex 5.495610349541245 5.105309631037003 0.0
    vertex 5.135086953964048 5.259389603829199 0.0
  endloop
endfacet
facet normal 0.3929924201882861 0.9195417106768751 0.0
  outer loop
    vertex 5.495610349541245 5.105309631037003 0.0
    vertex 5.135086953964048 5.259389603829199 10.000000000000002
    vertex 5.495610349541245 5.105309631037003 10.000000000000002
  endloop
endfacet
facet normal 0.5648348694739268 0.8252039567442538 0.0
  outer loop
    vertex 5.495610349541245 5.105309631037003 10.000000000000002
    vertex 5.8191468776560855 4.883855636379984 0.0
    vertex 5.495610349541245 5.105309631037003 0.0
  endloop
endfacet
facet normal 0.5648348694739268 0.8252039567442538 0.0
  outer loop
    vertex 5.8191468776560855 4.883855636379984 0.0
    vertex 5.495610349541245 5.105309631037003 10.000000000000002
    vertex 5.8191468776560855 4.883855636379984 10.000000000000002
  endloop
endfacet
facet normal -0.1805668438059688 0.9639966335841402 -0.19520785167711804
  outer loop
    vertex 3.694457032622319 6.2325032056786345 15.0
    vertex 4.359387363820595 5.344559350576419 10.000000000000002
    vertex 3.974020869486211 5.27237609892769 10.000000000000002
  endloop
endfacet
facet normal -0.1805668438059688 0.9639966335841402 -0.19520785167711804
  outer loop
    vertex 4.359387363820595 5.344559350576419 10.000000000000002
    vertex 3.694457032622319 6.2325032056786345 15.0
    vertex 4.272506774123895 6.340778083151727 15.0
  endloop
endfacet
facet normal 0.01096911113462918 0.9807005522811336 -0.1952078516771181
  outer loop
    vertex 4.272506774123895 6.340778083151727 15.0
    vertex 4.751431402832674 5.340174347811211 10.000000000000002
    vertex 4.359387363820595 5.344559350576419 10.000000000000002
  endloop
endfacet
facet normal 0.01096911113462918 0.9807005522811336 -0.1952078516771181
  outer loop
    vertex 4.751431402832674 5.340174347811211 10.000000000000002
    vertex 4.272506774123895 6.340778083151727 15.0
    vertex 4.860572832642015 6.334200579003916 15.0
  endloop
endfacet
facet normal 0.20208352928587256 0.959716698737169 -0.19520785167711807
  outer loop
    vertex 4.860572832642015 6.334200579003916 15.0
    vertex 5.135086953964048 5.259389603829199 10.000000000000002
    vertex 4.751431402832674 5.340174347811211 10.000000000000002
  endloop
endfacet
facet normal 0.20208352928587256 0.959716698737169 -0.19520785167711807
  outer loop
    vertex 5.135086953964048 5.259389603829199 10.000000000000002
    vertex 4.860572832642015 6.334200579003916 15.0
    vertex 5.436056159339074 6.213023463030898 15.0
  endloop
endfacet
facet normal -3.037302798251011e-31 -2.6921547529952153e-31 1.0
  outer loop
    vertex 1.6527672229611643 2.5134303748341233 15.0
    vertex 1.5510698496358815 3.6795461748538205 15.0
    vertex 1.5444923454880712 3.0914801163356995 15.0
  endloop
endfacet
facet normal -3.037302798251011e-31 -2.6921547529952153e-31 1.0
  outer loop
    vertex 1.5510698496358815 3.6795461748538205 15.0
    vertex 1.6527672229611643 2.5134303748341233 15.0
    vertex 1.6722469656088996 4.2550295015508794 15.0
  endloop
endfacet
facet normal -3.037302798251011e-31 -2.6921547529952153e-31 1.0
  outer loop
    vertex 1.6722469656088996 4.2550295015508794 15.0
    vertex 1.6527672229611643 2.5134303748341233 15.0
    vertex 1.8717335392351189 1.9676110777409668 15.0
  endloop
endfacet
facet normal -3.037302798251011e-31 -2.6921547529952153e-31 1.0
  outer loop
    vertex 1.6722469656088996 4.2550295015508794 15.0
    vertex 1.8717335392351189 1.9676110777409668 15.0
    vertex 1.9033669247971934 4.795814594916676 15.0
  endloop
endfacet
facet normal -3.037302798251011e-31 -2.6921547529952153e-31 1.0
  outer loop
    vertex 1.9033669247971934 4.795814594916676 15.0
    vertex 1.8717335392351189 1.9676110777409668 15.0
    vertex 2.192976541573253 1.474997754544533 15.0
  endloop
endfacet
facet normal -3.037302798251011e-31 -2.6921547529952153e-31 1.0
  outer loop
    vertex 1.9033669247971934 4.795814594916676 15.0
    vertex 2.192976541573253 1.474997754544533 15.0
    vertex 2.235547916782723 5.281119387088938 15.0
  endloop
endfacet
facet normal -3.037302798251011e-31 -2.6921547529952153e-31 1.0
  outer loop
    vertex 2.235547916782723 5.281119387088938 15.0
    vertex 2.192976541573253 1.474997754544533 15.0
    vertex 2.604151041550863 1.0545212589945259 15.0
  endloop
endfacet
facet normal -3.037302798251011e-31 -2.6921547529952153e-31 1.0
  outer loop
    vertex 2.235547916782723 5.281119387088938 15.0
    vertex 2.604151041550863 1.0545212589945259 15.0
    vertex 2.6560244123327292 5.692293887066546 15.0
  endloop
endfacet
facet normal -3.037302798251011e-31 -2.6921547529952153e-31 1.0
  outer loop
    vertex 2.6560244123327292 5.692293887066546 15.0
    vertex 2.604151041550863 1.0545212589945259 15.0
    vertex 3.0894558337231253 0.7223402670089968 15.0
  endloop
endfacet
facet normal -3.037302798251011e-31 -2.6921547529952153e-31 1.0
  outer loop
    vertex 2.6560244123327292 5.692293887066546 15.0
    vertex 3.0894558337231253 0.7223402670089968 15.0
    vertex 3.1486377355291633 6.01353688940468 15.0
  endloop
endfacet
facet normal -3.037302798251011e-31 -2.6921547529952153e-31 1.0
  outer loop
    vertex 3.1486377355291633 6.01353688940468 15.0
    vertex 3.0894558337231253 0.7223402670089968 15.0
    vertex 3.630240927088923 0.4912203078207036 15.0
  endloop
endfacet
facet normal -3.037302798251011e-31 -2.6921547529952153e-31 1.0
  outer loop
    vertex 3.1486377355291633 6.01353688940468 15.0
    vertex 3.630240927088923 0.4912203078207036 15.0
    vertex 3.694457032622319 6.2325032056786345 15.0
  endloop
endfacet
facet normal -3.037302798251011e-31 -2.6921547529952153e-31 1.0
  outer loop
    vertex 3.694457032622319 6.2325032056786345 15.0
    vertex 3.630240927088923 0.4912203078207036 15.0
    vertex 4.2057242537859825 0.37004319184768636 15.0
  endloop
endfacet
facet normal -3.037302798251011e-31 -2.6921547529952153e-31 1.0
  outer loop
    vertex 3.694457032622319 6.2325032056786345 15.0
    vertex 4.2057242537859825 0.37004319184768636 15.0
    vertex 4.272506774123895 6.340778083151727 15.0
  endloop
endfacet
facet normal -3.037302798251011e-31 -2.6921547529952153e-31 1.0
  outer loop
    vertex 4.272506774123895 6.340778083151727 15.0
    vertex 4.2057242537859825 0.37004319184768636 15.0
    vertex 4.793790312304102 0.36346568769987736 15.0
  endloop
endfacet
facet normal -3.037302798251011e-31 -2.6921547529952153e-31 1.0
  outer loop
    vertex 4.272506774123895 6.340778083151727 15.0
    vertex 4.793790312304102 0.36346568769987736 15.0
    vertex 4.860572832642015 6.334200579003916 15.0
  endloop
endfacet
facet normal -3.037302798251011e-31 -2.6921547529952153e-31 1.0
  outer loop
    vertex 4.860572832642015 6.334200579003916 15.0
    vertex 4.793790312304102 0.36346568769987736 15.0
    vertex 5.371840053805679 0.47174056517297097 15.0
  endloop
endfacet
facet normal -3.037302798251011e-31 -2.6921547529952153e-31 1.0
  outer loop
    vertex 4.860572832642015 6.334200579003916 15.0
    vertex 5.371840053805679 0.47174056517297097 15.0
    vertex 5.436056159339074 6.213023463030898 15.0
  endloop
endfacet
facet normal -3.037302798251011e-31 -2.6921547529952153e-31 1.0
  outer loop
    vertex 5.436056159339074 6.213023463030898 15.0
    vertex 5.371840053805679 0.47174056517297097 15.0
    vertex 5.917659350898835 0.6907068814469264 15.0
  endloop
endfacet
facet normal -3.037302798251011e-31 -2.6921547529952153e-31 1.0
  outer loop
    vertex 5.436056159339074 6.213023463030898 15.0
    vertex 5.917659350898835 0.6907068814469264 15.0
    vertex 5.976841252704869 5.981903503842605 15.0
  endloop
endfacet
facet normal -3.037302798251011e-31 -2.6921547529952153e-31 1.0
  outer loop
    vertex 5.976841252704869 5.981903503842605 15.0
    vertex 5.917659350898835 0.6907068814469264 15.0
    vertex 6.4102726740952685 1.0119498837850618 15.0
  endloop
endfacet
facet normal -3.037302798251011e-31 -2.6921547529952153e-31 1.0
  outer loop
    vertex 5.976841252704869 5.981903503842605 15.0
    vertex 6.4102726740952685 1.0119498837850618 15.0
    vertex 6.462146044877131 5.6497225118570755 15.0
  endloop
endfacet
facet normal -3.037302798251011e-31 -2.6921547529952153e-31 1.0
  outer loop
    vertex 6.462146044877131 5.6497225118570755 15.0
    vertex 6.4102726740952685 1.0119498837850618 15.0
    vertex 6.830749169645276 1.4231243837626721 15.0
  endloop
endfacet
facet normal -3.037302798251011e-31 -2.6921547529952153e-31 1.0
  outer loop
    vertex 6.462146044877131 5.6497225118570755 15.0
    vertex 6.830749169645276 1.4231243837626721 15.0
    vertex 6.8733205448547405 5.229246016307068 15.0
  endloop
endfacet
facet normal -3.037302798251011e-31 -2.6921547529952153e-31 1.0
  outer loop
    vertex 6.8733205448547405 5.229246016307068 15.0
    vertex 6.830749169645276 1.4231243837626721 15.0
    vertex 7.162930161630802 1.9084291759349352 15.0
  endloop
endfacet
facet normal -3.037302798251011e-31 -2.6921547529952153e-31 1.0
  outer loop
    vertex 6.8733205448547405 5.229246016307068 15.0
    vertex 7.162930161630802 1.9084291759349352 15.0
    vertex 7.1945635471928675 4.7366326931106455 15.0
  endloop
endfacet
facet normal -3.037302798251011e-31 -2.6921547529952153e-31 1.0
  outer loop
    vertex 7.1945635471928675 4.7366326931106455 15.0
    vertex 7.162930161630802 1.9084291759349352 15.0
    vertex 7.394050120819095 2.449214269300733 15.0
  endloop
endfacet
facet normal -3.037302798251011e-31 -2.6921547529952153e-31 1.0
  outer loop
    vertex 7.1945635471928675 4.7366326931106455 15.0
    vertex 7.394050120819095 2.449214269300733 15.0
    vertex 7.413529863466826 4.19081339601749 15.0
  endloop
endfacet
facet normal -3.037302798251011e-31 -2.6921547529952153e-31 1.0
  outer loop
    vertex 7.413529863466826 4.19081339601749 15.0
    vertex 7.394050120819095 2.449214269300733 15.0
    vertex 7.515227236792112 3.0246975959977926 15.0
  endloop
endfacet
facet normal -3.037302798251011e-31 -2.6921547529952153e-31 1.0
  outer loop
    vertex 7.413529863466826 4.19081339601749 15.0
    vertex 7.515227236792112 3.0246975959977926 15.0
    vertex 7.52180474093992 3.612763654515913 15.0
  endloop
endfacet
facet normal -0.9597166987371692 0.2020835292858722 -0.19520785167711815
  outer loop
    vertex 1.5510698496358815 3.6795461748538205 15.0
    vertex 2.625880824810599 3.954060296175854 10.000000000000002
    vertex 2.545096080828586 3.570404745044481 10.000000000000002
  endloop
endfacet
facet normal -0.9597166987371692 0.2020835292858722 -0.19520785167711815
  outer loop
    vertex 2.625880824810599 3.954060296175854 10.000000000000002
    vertex 1.5510698496358815 3.6795461748538205 15.0
    vertex 1.6722469656088996 4.2550295015508794 15.0
  endloop
endfacet
endsolid Untitled-6395f930
