solid Untitled-638f77d9
facet normal 0.0 0.0 -1.0
  outer loop
    vertex 15.999999999999998 15.999999999999998 0.0
    vertex 0.0 0.0 0.0
    vertex 0.0 15.999999999999998 0.0
  endloop
endfacet
facet normal 0.0 0.0 -1.0
  outer loop
    vertex 0.0 0.0 0.0
    vertex 15.999999999999998 15.999999999999998 0.0
    vertex 15.999999999999998 0.0 0.0
  endloop
endfacet
facet normal 0.0 0.0 1.0
  outer loop
    vertex 15.999999999999998 0.0 15.999999999999998
    vertex 0.0 15.999999999999998 15.999999999999998
    vertex 0.0 0.0 15.999999999999998
  endloop
endfacet
facet normal 0.0 0.0 1.0
  outer loop
    vertex 0.0 15.999999999999998 15.999999999999998
    vertex 15.999999999999998 0.0 15.999999999999998
    vertex 15.999999999999998 15.999999999999998 15.999999999999998
  endloop
endfacet
facet normal 1.0 0.0 0.0
  outer loop
    vertex 15.999999999999998 15.999999999999998 0.0
    vertex 15.999999999999998 0.0 15.999999999999998
    vertex 15.999999999999998 0.0 0.0
  endloop
endfacet
facet normal 1.0 0.0 0.0
  outer loop
    vertex 15.999999999999998 0.0 15.999999999999998
    vertex 15.999999999999998 15.999999999999998 0.0
    vertex 15.999999999999998 15.999999999999998 15.999999999999998
  endloop
endfacet
facet normal 0.0 1.0 0.0
  outer loop
    vertex 0.0 15.999999999999998 15.999999999999998
    vertex 15.999999999999998 15.999999999999998 0.0
    vertex 0.0 15.999999999999998 0.0
  endloop
endfacet
facet normal 0.0 1.0 0.0
  outer loop
    vertex 15.999999999999998 15.999999999999998 0.0
    vertex 0.0 15.999999999999998 15.999999999999998
    vertex 15.999999999999998 15.999999999999998 15.999999999999998
  endloop
endfacet
facet normal -1.0 0.0 0.0
  outer loop
    vertex 0.0 15.999999999999998 15.999999999999998
    vertex 0.0 0.0 0.0
    vertex 0.0 0.0 15.999999999999998
  endloop
endfacet
facet normal -1.0 0.0 0.0
  outer loop
    vertex 0.0 0.0 0.0
    vertex 0.0 15.999999999999998 15.999999999999998
    vertex 0.0 15.999999999999998 0.0
  endloop
endfacet
facet normal -0.0 -1.0 -0.0
  outer loop
    vertex 15.999999999999998 0.0 15.999999999999998
    vertex 0.0 0.0 0.0
    vertex 15.999999999999998 0.0 0.0
  endloop
endfacet
facet normal -0.0 -1.0 -0.0
  outer loop
    vertex 0.0 0.0 0.0
    vertex 15.999999999999998 0.0 15.999999999999998
    vertex 0.0 0.0 15.999999999999998
  endloop
endfacet
endsolid Untitled-638f77d9
